<?xml version="1.0" encoding="UTF-8" standalone="no"?><!-- Generator: Gravit.io --><svg xmlns="http://www.w3.org/2000/svg" xmlns:xlink="http://www.w3.org/1999/xlink" style="isolation:isolate" viewBox="529.218 365.575 241.741 286.739" width="241.741pt" height="286.739pt"><defs><clipPath id="_clipPath_fhHZwPkMWB55kWDRlLbz5HslnVYex7BX"><rect x="529.218" y="365.575" width="241.741" height="286.739"/></clipPath></defs><g clip-path="url(#_clipPath_fhHZwPkMWB55kWDRlLbz5HslnVYex7BX)"><path d=" M 533.093 478.905 L 585.273 424.213 L 637.452 369.522 C 643.809 362.859 650.149 364.832 651.6 373.927 L 665.485 460.974 L 679.371 548.021 C 680.822 557.116 675.203 561.385 666.83 557.548 L 601.787 527.739 L 536.744 497.931 C 528.372 494.094 526.736 485.568 533.093 478.905 Z " fill="rgb(235,235,235)"/><path d=" M 769.988 537.716 L 742.528 593.407 L 715.068 649.099 C 712.803 653.692 710.294 653.318 709.468 648.264 L 696.502 568.942 L 683.537 489.619 C 682.711 484.566 685.711 482.414 690.233 484.818 L 728.066 504.928 L 765.899 525.039 C 770.42 527.442 772.253 533.123 769.988 537.716 Z " fill="rgb(235,235,235)"/><path d=" M 605.947 462.39 L 614.04 453.804 L 622.134 445.217 C 625.789 441.34 629.409 442.468 630.214 447.736 L 632.478 462.567 L 634.743 477.399 C 635.547 482.667 632.293 485.086 627.48 482.798 L 617.762 478.179 L 608.044 473.56 C 603.232 471.273 602.292 466.268 605.947 462.39 Z " fill="rgb(255,255,255)"/></g></svg>