<svg transform="translate(-2,0)" width="120%" height="120%" viewBox="0 30 80 160" xmlns="http://www.w3.org/2000/svg">
 <defs>
  <linearGradient gradientTransform="rotate(90)" id="myGradient">
   <stop stop-color="#4776e6" offset="0%"/>
   <stop stop-color="#8e54e9" offset="100%"/>
  </linearGradient>
 </defs>
 <g>
  <title>background</title>
  <rect fill="none" id="canvas_background" height="602" width="802" y="-1" x="-1"/>
 </g>
 <g>
  <title>Layer 1</title>
  <g stroke="url('#myGradient')" id="svg_1" fill="none" stroke-width="5">
   <path stroke="null" id="svg_2" d="m68.7121,110.24368l0,-22.4c0,-1.76 -2.47136,-3.2 -5.4919,-3.2l-43.93521,0c-3.02055,0 -5.4919,-1.44 -5.4919,-3.2l0,-22.4m54.91901,51.17334l0,1.09333m-54.91901,-52.24l0,-1.09333"/>
   <path stroke="null" id="svg_3" d="m66.88147,111.31034l-10.9838,0c-3.02055,0 -5.4919,-1.44 -5.4919,-3.2l0,-57.6c0,-1.76 -2.47136,-3.2 -5.4919,-3.2l-25.62887,0c-3.02055,0 -5.4919,1.44 -5.4919,3.2l0,6.4m53.04261,54.4l1.8764,0m-54.91901,-54.42667l0,1.09333m45.15258,52.26667l0,-24.53333m0,24.50667l0,1.09333m0,-25.57333l0,-1.09333m11.59706,26.66667l87.87041,0m-87.82465,0l-1.8764,0m89.65528,0l1.8764,0"/>
  </g>
 </g>
</svg>