<?xml version="1.0" encoding="UTF-8" standalone="no"?><!-- Generator: Gravit.io -->
    <svg xmlns="http://www.w3.org/2000/svg" xmlns:xlink="http://www.w3.org/1999/xlink" style="isolation:isolate" viewBox="529.218 365.575 241.741 286.739" width="241.741pt" height="286.739pt">
        <defs>
            <linearGradient gradientTransform="rotate(90)" id="myGradient">
                <stop stop-color="#4776e6" offset="0%"/>
                <stop stop-color="#8e54e9" offset="100%"/>
            </linearGradient>
            <clipPath id="_clipPath_jGSdUl7TvIa3nGDnC4sxV3ActqIg4SOS">
                <rect x="529.218" y="365.575" width="241.741" height="286.739"/>
            </clipPath>
        </defs>
        <g clip-path="url(#_clipPath_jGSdUl7TvIa3nGDnC4sxV3ActqIg4SOS)">
        <path d=" M 533.093 478.905 L 585.273 424.213 L 637.452 369.522 C 643.809 362.859 650.149 364.832 651.6 373.927 L 665.485 460.974 L 679.371 548.021 C 680.822 557.116 675.203 561.385 666.83 557.548 L 601.787 527.739 L 536.744 497.931 C 528.372 494.094 526.736 485.568 533.093 478.905 Z " fill="url('#myGradient')"/>
        <path d=" M 769.988 537.716 L 742.528 593.407 L 715.068 649.099 C 712.803 653.692 710.294 653.318 709.468 648.264 L 696.502 568.942 L 683.537 489.619 C 682.711 484.566 685.711 482.414 690.233 484.818 L 728.066 504.928 L 765.899 525.039 C 770.42 527.442 772.253 533.123 769.988 537.716 Z " fill="url('#myGradient')"/>
         </g>
    </svg>